<?xml version="1.0" encoding="iso-8859-1"?>
<!-- Generator: Adobe Illustrator 19.1.1, SVG Export Plug-In . SVG Version: 6.00 Build 0)  -->
<svg xmlns="http://www.w3.org/2000/svg" xmlns:xlink="http://www.w3.org/1999/xlink" version="1.1" id="Layer_1" x="0px" y="0px" viewBox="0 0 48 48" style="enable-background:new 0 0 48 48;" xml:space="preserve">
<polygon style="fill:#00897B;" points="8,37 15,44 33,44 40,37 40,11 33,4 15,4 8,11 "/>
<polygon style="fill:#26A69A;" points="8,37 15,44 33,4 15,4 8,11 "/>
<rect x="12" y="8" style="fill:#26A69A;" width="24" height="32"/>
<polygon style="fill:#80CBC4;" points="36,8 12,8 12,40 "/>
<polygon style="fill:#4DB6AC;" points="36,8 12,8 24,24 "/>
<polygon style="fill:#B2DFDB;" points="16,16 20,12 28.111,12 32,16 32,32 28,36 20,36 16,32 "/>
<polygon style="fill:#CEEFEC;" points="16,16 20,12 28.111,12 20,36 16,32 "/>
<polygon style="fill:#80CBC4;" points="33,44 28.111,36 32,32 40,37 "/>
<polygon style="fill:#B2DFDB;" points="15,44 20,36 16,32 8,37 "/>
<polygon style="fill:#B2DFDB;" points="16,16 8,11 15,4 20,12 "/>
<polygon style="fill:#80CBC4;" points="28,12 32,16 40,11 33,4 "/>
</svg>
