<?xml version="1.0" encoding="iso-8859-1"?>
<!-- Generator: Adobe Illustrator 19.1.1, SVG Export Plug-In . SVG Version: 6.00 Build 0)  -->
<svg xmlns="http://www.w3.org/2000/svg" xmlns:xlink="http://www.w3.org/1999/xlink" version="1.1" id="Layer_1" x="0px" y="0px" viewBox="0 0 48 48" style="enable-background:new 0 0 48 48;" xml:space="preserve">
<path style="fill:#D50000;" d="M43.867,17.33C42.623,13.306,41,11,41,11s-2.553-0.817-7.55-1.449C30.965,9.237,27.839,9,24,9  s-6.965,0.237-9.45,0.551C9.553,10.183,7,11,7,11s-1.623,2.306-2.867,6.33C3.491,19.408,3,21.97,3,25s0.491,5.592,1.133,7.67  C5.377,36.694,7,39,7,39s2.553,0.817,7.55,1.449C17.034,40.763,20.161,41,24,41s6.965-0.237,9.45-0.551C38.447,39.817,41,39,41,39  s1.623-2.306,2.867-6.33C44.509,30.592,45,28.03,45,25S44.509,19.408,43.867,17.33z"/>
<polygon style="fill:#FF6464;" points="34,13 41,11 41,19 "/>
<polygon style="fill:#ED322E;" points="24,17 34,13 34,19 "/>
<path style="fill:#FF8A80;" d="M34,9.624c-0.182-0.024-0.361-0.049-0.55-0.073C30.965,9.237,27.839,9,24,9l10,4V9.624z"/>
<polygon style="fill:#ED322E;" points="41,19 37,25 34,19 "/>
<path style="fill:#ED322E;" d="M43.867,17.33C42.623,13.306,41,11,41,11v8L43.867,17.33z"/>
<polygon style="fill:#FF6464;" points="37,25 41,19 41,31 "/>
<polygon style="fill:#ED322E;" points="41,31 41,19 45,25 "/>
<polygon style="fill:#FF6464;" points="34,37 41,39 41,31 "/>
<polygon style="fill:#ED322E;" points="24,33 34,37 34,31 "/>
<path style="fill:#FF6464;" d="M34,40.327v-3.376l-10,4c3.839,0,6.965-0.237,9.45-0.551C33.639,40.376,33.818,40.352,34,40.327z"/>
<polygon style="fill:#ED322E;" points="41,31 37,25 34,31 "/>
<path style="fill:#ED322E;" d="M43.867,32.67C42.623,36.694,41,39,41,39v-8L43.867,32.67z"/>
<polygon style="fill:#FF8A80;" points="14,13 7,11 7,19 "/>
<polygon style="fill:#ED322E;" points="24,17 14,13 14,19 "/>
<polygon style="fill:#FF8A80;" points="14,13 24,17 34,13 "/>
<polygon style="fill:#ED322E;" points="24,9 14,13 34,13 "/>
<path style="fill:#FF8A80;" d="M14.55,9.551C14.361,9.575,14.182,9.6,14,9.624V13l10-4C20.161,9,17.035,9.237,14.55,9.551z"/>
<polygon style="fill:#ED322E;" points="7,19 11,25 14,19 "/>
<path style="fill:#ED322E;" d="M4.133,17.33C5.377,13.306,7,11,7,11v8L4.133,17.33z"/>
<polygon style="fill:#FF8A80;" points="11,25 7,19 7,31 "/>
<polygon style="fill:#ED322E;" points="7,31 7,19 3,25 "/>
<polygon style="fill:#FF8A80;" points="14,37 7,39 7,31 "/>
<polygon style="fill:#ED322E;" points="24,33 14,37 14,31 "/>
<polygon style="fill:#FF6464;" points="24,33 14,37 34,37 "/>
<polygon style="fill:#ED322E;" points="14,37 24,41 34,37 "/>
<path style="fill:#FF6464;" d="M14,40.375c0.182,0.025,0.36,0.05,0.55,0.074C17.035,40.763,20.161,41,24,41l-10-4V40.375z"/>
<polygon style="fill:#ED322E;" points="7,31 11,25 14,31 "/>
<path style="fill:#ED322E;" d="M4.133,32.67C5.377,36.694,7,39,7,39v-8L4.133,32.67z"/>
<polygon style="fill:#FF6464;" points="34,19 24,17 14,19 11,25 14,31 24,33 34,31 37,25 "/>
<polygon style="fill:#FF8A80;" points="34,19 24,17 14,19 11,25 14,31 "/>
</svg>
